<svg xmlns="http://www.w3.org/2000/svg" version="1.1" xmlns:xlink="http://www.w3.org/1999/xlink" xmlns:svgjs="http://svgjs.dev/svgjs" viewBox="0 0 800 800"><defs><filter id="bbburst-blur-1" x="-100%" y="-100%" width="400%" height="400%"><feGaussianBlur in="SourceGraphic" stdDeviation="1"></feGaussianBlur></filter><filter id="bbburst-blur-2" x="-100%" y="-100%" width="400%" height="400%"><feGaussianBlur in="SourceGraphic" stdDeviation="2"></feGaussianBlur></filter><filter id="bbburst-blur-3" x="-100%" y="-100%" width="400%" height="400%"><feGaussianBlur in="SourceGraphic" stdDeviation="4"></feGaussianBlur></filter><filter id="bbburst-blur-4" x="-100%" y="-100%" width="400%" height="400%"><feGaussianBlur in="SourceGraphic" stdDeviation="12"></feGaussianBlur></filter><symbol id="bbburst-shape-1" viewBox="0 0 194 167"><path d="m97 0 96.129 166.5H.871L97 0Z"></path></symbol><symbol id="bbburst-shape-3" viewBox="0 0 131 127"><path d="m66 0 66 63.5L66 127 0 63.5 66 0Z"></path></symbol><symbol id="bbburst-shape-4" viewBox="0 0 149 143"><path d="M71.647 2.781c.898-2.764 4.808-2.764 5.706 0l15.445 47.534a3 3 0 0 0 2.853 2.073h49.98c2.906 0 4.115 3.719 1.764 5.427L106.96 87.193a2.999 2.999 0 0 0-1.09 3.354l15.445 47.534c.898 2.764-2.266 5.062-4.617 3.354l-40.435-29.378a3 3 0 0 0-3.526 0l-40.435 29.378c-2.351 1.708-5.515-.59-4.617-3.354L43.13 90.547a3 3 0 0 0-1.09-3.354L1.605 57.815c-2.35-1.708-1.142-5.427 1.764-5.427h49.98a3 3 0 0 0 2.853-2.073L71.647 2.781Z"></path></symbol><symbol id="bbburst-shape-8" viewBox="0 0 87 168"><path d="m12 12 31.2546 18.0749c16.4102 9.4902 20.014 31.6325 7.4603 45.8369L36.3296 92.1884c-12.5684 14.2206-8.9394 36.3916 7.5068 45.8636L75 156" stroke-width="14" stroke-linecap="round" stroke-linejoin="round"></path></symbol><symbol id="bbburst-shape-10" viewBox="0 0 145 145"><circle cx="72.5" cy="72.5" r="61.5" fill="none" stroke-width="22"></circle></symbol><symbol id="bbburst-shape-14" viewBox="0 0 185 109"><path d="M168 16.5C168 58.1975 134.197 92 92.5 92 50.8025 92 17 58.1975 17 16.5" stroke-width="33" stroke-linecap="round"></path></symbol></defs><use xlink:href="#bbburst-shape-10" width="30.516903754234306" opacity="0.17913421567583265" transform="matrix(1.1581527555713529,-0.47030011137834365,0.47030011137834365,1.1581527555713529,277.3054181432078,-416.00664629127533)" fill="none" stroke="#ff5c58" filter="url(#bbburst-blur-3)"></use><use xlink:href="#bbburst-shape-8" width="21.76070001734977" opacity="0.7105235223112518" transform="matrix(0.8172336275403297,0.5763065139465922,-0.5763065139465922,0.8172336275403297,506.3853994725472,127.5593680246896)" fill="none" stroke="#2c2891" filter="url(#bbburst-blur-1)"></use><use xlink:href="#bbburst-shape-14" width="36.841956460133616" opacity="0.41977696327358005" transform="matrix(0.9999997230802247,0.0007442039196431802,-0.0007442039196431802,0.9999997230802247,126.02714154383047,52.13636677071355)" fill="none" stroke="#ffa6d5" filter="url(#bbburst-blur-2)"></use><use xlink:href="#bbburst-shape-14" width="37.74449877946803" opacity="-0.07043537169566738" transform="matrix(1.33273890548594,1.1341547556679108,-1.1341547556679108,1.33273890548594,1159.6550026169962,-504.19684491373494)" fill="none" stroke="#00a19d" filter="url(#bbburst-blur-4)"></use><use xlink:href="#bbburst-shape-8" width="12.528549237924178" opacity="0.9141914548717696" transform="matrix(0.7386351065561534,-0.6741054660531837,0.6741054660531837,0.7386351065561534,103.79427418836912,76.9911034697866)" fill="none" stroke="#ffa6d5"></use><use xlink:href="#bbburst-shape-10" width="23.1591907875095" opacity="0.5646458180132768" transform="matrix(0.8935314971995822,-0.44900051616036374,0.44900051616036374,0.8935314971995822,22.889259661831176,105.66755451072993)" fill="none" stroke="#2c2891" filter="url(#bbburst-blur-1)"></use><use xlink:href="#bbburst-shape-3" width="32.58310492623343" opacity="0.24023158600351302" transform="matrix(1.1240724809673381,-0.5467733145755498,0.5467733145755498,1.1240724809673381,244.2357740549575,291.41174028711384)" fill="#00a19d" filter="url(#bbburst-blur-3)"></use><use xlink:href="#bbburst-shape-14" width="13.242131164572525" opacity="0.8236820061179383" transform="matrix(0.9358161017371535,0.35248861503526274,-0.35248861503526274,0.9358161017371535,604.6821398069574,-14.20471882991336)" fill="none" stroke="#ffa6d5"></use><use xlink:href="#bbburst-shape-1" width="17.96950735397148" opacity="0.818563495783402" transform="matrix(0.9885272051441545,0.15104292333600672,-0.15104292333600672,0.9885272051441545,522.1714404225486,44.19644733735862)" fill="#2c2891"></use><use xlink:href="#bbburst-shape-1" width="25.924719033992538" opacity="0.46643048979998947" transform="matrix(0.8617505835105862,0.507332171086325,-0.507332171086325,0.8617505835105862,829.5697687236591,15.726727562296219)" fill="#ffbd9b" filter="url(#bbburst-blur-2)"></use><use xlink:href="#bbburst-shape-4" width="25.39112499254807" opacity="0.6526500532816908" transform="matrix(0.9996759015892266,0.025457646823048127,-0.025457646823048127,0.9996759015892266,525.3505392391495,89.74034546105253)" fill="#00a19d" filter="url(#bbburst-blur-1)"></use><use xlink:href="#bbburst-shape-1" width="25.35040149478287" opacity="0.610795086047271" transform="matrix(0.8850736395088598,0.46545102067407795,-0.46545102067407795,0.8850736395088598,698.9552012496009,-83.5800140018219)" fill="#ffbd9b" filter="url(#bbburst-blur-1)"></use><use xlink:href="#bbburst-shape-3" width="13.044458582663253" opacity="0.9024937316663285" transform="matrix(0.8259102801430219,0.5638015689531868,-0.5638015689531868,0.8259102801430219,662.4443711008059,54.45884648584166)" fill="#2c2891"></use><use xlink:href="#bbburst-shape-14" width="30.525933222705216" opacity="0.20567488501629405" transform="matrix(1.0449272607058289,0.686022608835753,-0.686022608835753,1.0449272607058289,652.8183735186317,329.0036815230755)" fill="none" stroke="#00a19d" filter="url(#bbburst-blur-3)"></use><use xlink:href="#bbburst-shape-1" width="36.57179901922632" opacity="0.44501300273469646" transform="matrix(0.8365117796585236,-0.5479489415014228,0.5479489415014228,0.8365117796585236,329.7180578619396,263.658996957934)" fill="#ff5c58" filter="url(#bbburst-blur-2)"></use><use xlink:href="#bbburst-shape-10" width="36.967494118739296" opacity="0.2004686254285657" transform="matrix(1.2328807117376912,0.2061677730033571,-0.2061677730033571,1.2328807117376912,99.89499303128403,-98.9084069431861)" fill="none" stroke="#ffa6d5" filter="url(#bbburst-blur-3)"></use><use xlink:href="#bbburst-shape-4" width="19.95258875864915" opacity="0.6883153763710559" transform="matrix(0.9716111017112579,0.2365837421114049,-0.2365837421114049,0.9716111017112579,405.7045443096282,-106.72251114411853)" fill="#ffa6d5" filter="url(#bbburst-blur-1)"></use><use xlink:href="#bbburst-shape-10" width="17.478649941292293" opacity="0.7744267787750284" transform="matrix(0.8653868314725239,-0.5011044121876652,0.5011044121876652,0.8653868314725239,158.38460548378956,-37.55737587919447)" fill="none" stroke="#ffa6d5" filter="url(#bbburst-blur-1)"></use><use xlink:href="#bbburst-shape-10" width="13.959868458911313" opacity="0.8515685277220739" transform="matrix(0.8147037287837622,0.5798774304159752,-0.5798774304159752,0.8147037287837622,596.2681622628305,10.391121830483883)" fill="none" stroke="#2c2891"></use><use xlink:href="#bbburst-shape-10" width="41.10702483081862" opacity="0.16417320714919237" transform="matrix(1.1579827910445315,0.47071844625499504,-0.47071844625499504,1.1579827910445315,442.9909401977033,283.0906251173334)" fill="none" stroke="#00a19d" filter="url(#bbburst-blur-3)"></use><use xlink:href="#bbburst-shape-8" width="17.43395989412192" opacity="0.7548078621494408" transform="matrix(0.9914355246325687,-0.13059709222085789,0.13059709222085789,0.9914355246325687,353.976590315882,-104.76731615455964)" fill="none" stroke="#ffbd9b" filter="url(#bbburst-blur-1)"></use><use xlink:href="#bbburst-shape-10" width="36.8583303929324" opacity="0.41116777110367864" transform="matrix(0.9509544337778689,0.3093309956635655,-0.3093309956635655,0.9509544337778689,298.77644668674264,178.79324373394905)" fill="none" stroke="#ffa6d5" filter="url(#bbburst-blur-2)"></use><use xlink:href="#bbburst-shape-8" width="23.59267300309344" opacity="0.5942631231256909" transform="matrix(0.9902865642967597,-0.13904143473554825,0.13904143473554825,0.9902865642967597,441.9939273657979,151.7829962976533)" fill="none" stroke="#00a19d" filter="url(#bbburst-blur-1)"></use><use xlink:href="#bbburst-shape-10" width="33.888344346716444" opacity="-0.08797541624821714" transform="matrix(1.7488488968343243,0.06346287136087021,-0.06346287136087021,1.7488488968343243,46.552797431788164,-643.7722415115409)" fill="none" stroke="#ffa6d5" filter="url(#bbburst-blur-4)"></use><use xlink:href="#bbburst-shape-10" width="14.342893434879294" opacity="0.9628260927808628" transform="matrix(0.9218823212850618,-0.3874699803882439,0.3874699803882439,0.9218823212850618,250.55688887458751,45.51768229213195)" fill="none" stroke="#ff5c58"></use><use xlink:href="#bbburst-shape-4" width="33.174230123167646" opacity="0.3092745141762685" transform="matrix(1.2457033630314585,-0.10355255347945005,0.10355255347945005,1.2457033630314585,59.04705838001118,40.744692694316655)" fill="#00a19d" filter="url(#bbburst-blur-3)"></use><use xlink:href="#bbburst-shape-14" width="42.73288107698819" opacity="0.12491970402427188" transform="matrix(1.1768375141156489,-0.42137093560199435,0.42137093560199435,1.1768375141156489,-84.22767390307213,-327.45156732079266)" fill="none" stroke="#2c2891" filter="url(#bbburst-blur-3)"></use><use xlink:href="#bbburst-shape-4" width="33.26804008763658" opacity="0.36016065414077403" transform="matrix(0.8172579576441915,0.5762720110045644,-0.5762720110045644,0.8172579576441915,544.095362871291,342.10760161224044)" fill="#2c2891" filter="url(#bbburst-blur-2)"></use><use xlink:href="#bbburst-shape-3" width="28.10198717505722" opacity="0.6110606262873559" transform="matrix(0.797437936892995,-0.6034009751432655,0.6034009751432655,0.797437936892995,169.93842592400878,-83.9909397150947)" fill="#00a19d" filter="url(#bbburst-blur-1)"></use><use xlink:href="#bbburst-shape-14" width="22.89219827510353" opacity="0.7224641795523971" transform="matrix(0.9859640398164045,0.1669578155969811,-0.1669578155969811,0.9859640398164045,574.8236054495986,40.5833325819811)" fill="none" stroke="#ffbd9b" filter="url(#bbburst-blur-1)"></use><use xlink:href="#bbburst-shape-4" width="33.636272629464244" opacity="0.26804475430434493" transform="matrix(1.2472795729451793,0.08242370359120856,-0.08242370359120856,1.2472795729451793,414.2817309141147,-429.63185216646946)" fill="#ff5c58" filter="url(#bbburst-blur-3)"></use><use xlink:href="#bbburst-shape-8" width="15.760710661282854" opacity="0.7830779495105061" transform="matrix(0.8496106694962481,0.5274103812764185,-0.5274103812764185,0.8496106694962481,534.2693919659703,124.03438874524187)" fill="none" stroke="#ffa6d5"></use><use xlink:href="#bbburst-shape-14" width="46.44899933587944" opacity="0.1695844920466465" transform="matrix(1.2391019254296811,-0.16470099695040316,0.16470099695040316,1.2391019254296811,22.77042134869427,152.78075230613297)" fill="none" stroke="#00a19d" filter="url(#bbburst-blur-3)"></use><use xlink:href="#bbburst-shape-10" width="13.82166584111972" opacity="0.8814036407539506" transform="matrix(0.8656980913140515,-0.5005664937800053,0.5005664937800053,0.8656980913140515,220.616751147116,103.31625651593413)" fill="none" stroke="#2c2891"></use><use xlink:href="#bbburst-shape-4" width="34.27581246660482" opacity="0.18151250015482923" transform="matrix(0.9558694342842478,-0.8054896800090688,0.8054896800090688,0.9558694342842478,-293.9365725712306,-65.26735446323698)" fill="#00a19d" filter="url(#bbburst-blur-3)"></use><use xlink:href="#bbburst-shape-14" width="28.706400993755345" opacity="0.5556643794771099" transform="matrix(0.8634788972653916,0.5043849660500829,-0.5043849660500829,0.8634788972653916,537.7756584102165,-145.7852247572122)" fill="none" stroke="#ffa6d5" filter="url(#bbburst-blur-1)"></use><use xlink:href="#bbburst-shape-10" width="41.25359967491029" opacity="0.2055635339582914" transform="matrix(1.1070777818351178,-0.5804125989044648,0.5804125989044648,1.1070777818351178,-203.28858768045401,49.75792524488406)" fill="none" stroke="#ffbd9b" filter="url(#bbburst-blur-3)"></use><use xlink:href="#bbburst-shape-10" width="14.810773426046296" opacity="0.8318733775679829" transform="matrix(0.9999576362951729,0.009204651811495086,-0.009204651811495086,0.9999576362951729,368.8643830220876,70.46501647961236)" fill="none" stroke="#ffa6d5"></use><use xlink:href="#bbburst-shape-10" width="30.166626893522242" opacity="0.3008291112207907" transform="matrix(1.2381802306242466,-0.17149261351815553,0.17149261351815553,1.2381802306242466,563.8374014563569,96.87646628053159)" fill="none" stroke="#2c2891" filter="url(#bbburst-blur-3)"></use><use xlink:href="#bbburst-shape-14" width="47.5307909402581" opacity="0.10370246019117824" transform="matrix(1.4387900151327446,0.9961843666482206,-0.9961843666482206,1.4387900151327446,968.281770729305,-546.9999026821123)" fill="none" stroke="#ffa6d5" filter="url(#bbburst-blur-4)"></use><use xlink:href="#bbburst-shape-10" width="39.92360731114069" opacity="-0.07601044509286137" transform="matrix(1.7427000112283566,-0.1596767699594583,0.1596767699594583,1.7427000112283566,-49.2873494156287,40.0435734247593)" fill="none" stroke="#00a19d" filter="url(#bbburst-blur-4)"></use><use xlink:href="#bbburst-shape-10" width="22.138166938136532" opacity="0.635823187189952" transform="matrix(0.8512271267270631,-0.5247974644793822,0.5247974644793822,0.8512271267270631,172.93371282468553,229.0155791918446)" fill="none" stroke="#ffa6d5" filter="url(#bbburst-blur-1)"></use><use xlink:href="#bbburst-shape-3" width="30.03501316051688" opacity="0.4469851348983983" transform="matrix(0.9977724392433985,-0.06670951571011895,0.06670951571011895,0.9977724392433985,365.12293917333096,250.6613516972718)" fill="#2c2891" filter="url(#bbburst-blur-2)"></use><use xlink:href="#bbburst-shape-14" width="34.1541140800374" opacity="0.3875739142171768" transform="matrix(0.8472198292876693,-0.5312424689929944,0.5312424689929944,0.8472198292876693,106.46321543758481,-197.2010395278777)" fill="none" stroke="#ffa6d5" filter="url(#bbburst-blur-2)"></use><use xlink:href="#bbburst-shape-1" width="12.140598975962078" opacity="0.8479487491591025" transform="matrix(0.8030823375635117,-0.5958680718863244,0.5958680718863244,0.8030823375635117,164.5758041826357,14.418401737429747)" fill="#00a19d"></use><use xlink:href="#bbburst-shape-10" width="14.64342422840206" opacity="0.8811856386997683" transform="matrix(0.9793381532675715,0.2022295269105445,-0.2022295269105445,0.9793381532675715,430.6828736301352,38.5070736635941)" fill="none" stroke="#2c2891"></use><use xlink:href="#bbburst-shape-4" width="35.21126010599962" opacity="0.4840489251451572" transform="matrix(0.9303372777515186,0.366704989911364,-0.366704989911364,0.9303372777515186,313.88065352084163,-62.663378153699)" fill="#00a19d" filter="url(#bbburst-blur-2)"></use><use xlink:href="#bbburst-shape-8" width="38.54563243019242" opacity="0.34796282477436435" transform="matrix(0.9999976315105854,-0.0021764588715159107,0.0021764588715159107,0.9999976315105854,650.054394926285,-114.35361816511261)" fill="none" stroke="#ffbd9b" filter="url(#bbburst-blur-2)"></use><use xlink:href="#bbburst-shape-14" width="15.128818785866203" opacity="0.7652543188919023" transform="matrix(0.7800467371848708,0.6257212540798315,-0.6257212540798315,0.7800467371848708,539.2172938288938,73.22900991644354)" fill="none" stroke="#2c2891" filter="url(#bbburst-blur-1)"></use><use xlink:href="#bbburst-shape-3" width="35.40174710956553" opacity="0.46891185775019006" transform="matrix(0.9894709179031361,0.14473183003031903,-0.14473183003031903,0.9894709179031361,307.6588394473791,200.46954902707728)" fill="#2c2891" filter="url(#bbburst-blur-2)"></use><use xlink:href="#bbburst-shape-10" width="41.664903818916486" opacity="0.05863540482433094" transform="matrix(1.7043342196342994,-0.39717108125283196,0.39717108125283196,1.7043342196342994,-23.116967110897548,-630.0062489539772)" fill="none" stroke="#2c2891" filter="url(#bbburst-blur-4)"></use><use xlink:href="#bbburst-shape-14" width="23.705585083725545" opacity="0.5739870595382586" transform="matrix(0.9839698444568327,0.17833492422853267,-0.17833492422853267,0.9839698444568327,344.9155390117252,-149.23963616302598)" fill="none" stroke="#ff5c58" filter="url(#bbburst-blur-1)"></use><use xlink:href="#bbburst-shape-14" width="43.34465341252643" opacity="0.21954474639617827" transform="matrix(1.229530497336159,-0.22528816240605704,0.22528816240605704,1.229530497336159,497.75084580218305,191.23354082194862)" fill="none" stroke="#00a19d" filter="url(#bbburst-blur-3)"></use><use xlink:href="#bbburst-shape-8" width="34.299358953205314" opacity="0.22797364119408292" transform="matrix(0.9287777195614295,-0.8365834971156618,0.8365834971156618,0.9287777195614295,299.1871520123799,-198.66037646409228)" fill="none" stroke="#00a19d" filter="url(#bbburst-blur-3)"></use><use xlink:href="#bbburst-shape-1" width="14.739134954732442" opacity="0.9484724255422112" transform="matrix(0.8975569100817171,-0.4408986200529101,0.4408986200529101,0.8975569100817171,224.33130982341177,22.234193004873475)" fill="#00a19d"></use><use xlink:href="#bbburst-shape-4" width="11.834118121609484" opacity="0.8397679762619288" transform="matrix(0.7338388920703948,0.6793235462464815,-0.6793235462464815,0.7338388920703948,601.8548920429891,72.36097562167015)" fill="#00a19d"></use><use xlink:href="#bbburst-shape-8" width="13.54248690204874" opacity="0.9607665269533405" transform="matrix(0.8732460385221419,-0.4872795462620876,0.4872795462620876,0.8732460385221419,181.7465659908548,56.81948802975762)" fill="none" stroke="#ffa6d5"></use><use xlink:href="#bbburst-shape-8" width="19.311219932348187" opacity="0.7965877889322137" transform="matrix(0.7643937832813757,-0.6447496755181698,0.6447496755181698,0.7643937832813757,226.21168956711062,97.65423004635647)" fill="none" stroke="#00a19d"></use><use xlink:href="#bbburst-shape-14" width="14.795828678441309" opacity="0.8754755394483202" transform="matrix(0.9505908060213092,0.3104466451868304,-0.3104466451868304,0.9505908060213092,549.2279468555851,-28.453093916501757)" fill="none" stroke="#ffa6d5"></use><use xlink:href="#bbburst-shape-4" width="34.793719231951215" opacity="0.2826889746885084" transform="matrix(1.1973515230910485,-0.3589558888659531,0.3589558888659531,1.1973515230910485,53.72305755058494,194.0151064150362)" fill="#2c2891" filter="url(#bbburst-blur-3)"></use><use xlink:href="#bbburst-shape-4" width="19.023643651453963" opacity="0.7532196403796877" transform="matrix(0.7329003278382566,-0.6803360268680293,0.6803360268680293,0.7329003278382566,116.44916634387681,224.28545531232174)" fill="#00a19d" filter="url(#bbburst-blur-1)"></use><use xlink:href="#bbburst-shape-8" width="29.54424407419573" opacity="0.3039845183991363" transform="matrix(0.962466976816698,-0.7975947081929053,0.7975947081929053,0.962466976816698,359.63063476778893,137.7741455631848)" fill="none" stroke="#00a19d" filter="url(#bbburst-blur-3)"></use><use xlink:href="#bbburst-shape-14" width="24.85759471720178" opacity="0.6773355031064372" transform="matrix(0.7609173604983077,-0.6488488040308685,0.6488488040308685,0.7609173604983077,-13.306411443629258,119.57241585419814)" fill="none" stroke="#ffa6d5" filter="url(#bbburst-blur-1)"></use><use xlink:href="#bbburst-shape-3" width="34.00912990393261" opacity="0.2995036143555063" transform="matrix(1.178570665590139,-0.4164987229397193,0.4164987229397193,1.178570665590139,-64.28092788561102,-213.8462495215613)" fill="#ffa6d5" filter="url(#bbburst-blur-3)"></use><use xlink:href="#bbburst-shape-4" width="44.48643801001776" opacity="0.32990662983491326" transform="matrix(1.2153431863472932,-0.29230282140138225,0.29230282140138225,1.2153431863472932,383.4147162658704,-352.91356411242873)" fill="#ffbd9b" filter="url(#bbburst-blur-3)"></use><use xlink:href="#bbburst-shape-3" width="41.140529891160966" opacity="0.2955290152224819" transform="matrix(1.1044512651156477,-0.5853950828153967,0.5853950828153967,1.1044512651156477,-72.27946906664837,-262.3977492619822)" fill="#2c2891" filter="url(#bbburst-blur-3)"></use><use xlink:href="#bbburst-shape-8" width="35.60169768898844" opacity="0.388755452532902" transform="matrix(0.9022852686584142,-0.4311395295748388,0.4311395295748388,0.9022852686584142,484.43600517584423,80.73915759618825)" fill="none" stroke="#2c2891" filter="url(#bbburst-blur-2)"></use><use xlink:href="#bbburst-shape-8" width="42.12788319211431" opacity="0.15967836650289546" transform="matrix(0.9785588252328585,0.7777677195402801,-0.7777677195402801,0.9785588252328585,1043.8095053079046,-142.57338005248283)" fill="none" stroke="#2c2891" filter="url(#bbburst-blur-3)"></use><use xlink:href="#bbburst-shape-1" width="26.1977592429956" opacity="0.6350559888697549" transform="matrix(0.9449427014034519,-0.3272358340163051,0.3272358340163051,0.9449427014034519,152.57257158279316,153.30242330405815)" fill="#00a19d" filter="url(#bbburst-blur-1)"></use><use xlink:href="#bbburst-shape-10" width="20.118472652753745" opacity="0.7064552088575671" transform="matrix(0.7333092930351305,-0.6798951983565681,0.6798951983565681,0.7333092930351305,168.81400817934224,236.52299672371169)" fill="none" stroke="#ffa6d5" filter="url(#bbburst-blur-1)"></use><use xlink:href="#bbburst-shape-14" width="27.60463760176666" opacity="0.6171053059652543" transform="matrix(0.9961148385774565,-0.08806377442403679,0.08806377442403679,0.9961148385774565,208.84285671405894,-94.51370298886934)" fill="none" stroke="#00a19d" filter="url(#bbburst-blur-1)"></use><use xlink:href="#bbburst-shape-8" width="15.319774064816112" opacity="0.7717070600897162" transform="matrix(0.9797459790335962,0.20024439210000378,-0.20024439210000378,0.9797459790335962,534.8159173109359,-75.17657732565942)" fill="none" stroke="#00a19d" filter="url(#bbburst-blur-1)"></use><use xlink:href="#bbburst-shape-3" width="35.14503318663024" opacity="0.5129878568195404" transform="matrix(0.9755646837375447,-0.21971242077785327,0.21971242077785327,0.9755646837375447,394.3481197687128,-181.59805071089852)" fill="#ffbd9b" filter="url(#bbburst-blur-2)"></use><use xlink:href="#bbburst-shape-4" width="36.35258063021822" opacity="0.4575969299625797" transform="matrix(0.9830558011831894,-0.18330655132885396,0.18330655132885396,0.9830558011831894,118.50053653855822,-142.68506729246832)" fill="#ffa6d5" filter="url(#bbburst-blur-2)"></use><use xlink:href="#bbburst-shape-8" width="43.47394161056009" opacity="0.04805520294525678" transform="matrix(1.4943782492523967,-0.9106775764019567,0.9106775764019567,1.4943782492523967,354.0284785411768,-423.83548742083553)" fill="none" stroke="#00a19d" filter="url(#bbburst-blur-4)"></use><use xlink:href="#bbburst-shape-1" width="27.59282141779929" opacity="0.5679173996430332" transform="matrix(0.9065152369360057,-0.42217309862526486,0.42217309862526486,0.9065152369360057,57.86998620685199,152.60826301883685)" fill="#ffa6d5" filter="url(#bbburst-blur-1)"></use><use xlink:href="#bbburst-shape-8" width="28.755973271860068" opacity="0.10199184634068303" transform="matrix(1.4289443790451268,1.0102563840903636,-1.0102563840903636,1.4289443790451268,966.5836903034997,174.1759457627836)" fill="none" stroke="#2c2891" filter="url(#bbburst-blur-4)"></use><use xlink:href="#bbburst-shape-4" width="22.051876632951714" opacity="0.6811745217589213" transform="matrix(0.9823645127515086,-0.1869758382425148,0.1869758382425148,0.9823645127515086,286.9339596160183,-131.68596984686036)" fill="#00a19d" filter="url(#bbburst-blur-1)"></use><use xlink:href="#bbburst-shape-1" width="25.377487661838348" opacity="0.45604410155161823" transform="matrix(0.9979673888154078,0.06372668876504298,-0.06372668876504298,0.9979673888154078,439.19818443552265,-243.31825585949835)" fill="#ffa6d5" filter="url(#bbburst-blur-2)"></use><use xlink:href="#bbburst-shape-4" width="13.12993475157425" opacity="0.8946120128594677" transform="matrix(0.9986477418085759,0.051987380974924995,-0.051987380974924995,0.9986477418085759,366.9975447080675,-3.9608727020366246)" fill="#ffa6d5"></use><use xlink:href="#bbburst-shape-3" width="21.281551232235014" opacity="0.7141018954601144" transform="matrix(0.7564539455216788,-0.6540469618495945,0.6540469618495945,0.7564539455216788,77.44974222026639,221.74207565705802)" fill="#2c2891" filter="url(#bbburst-blur-1)"></use><use xlink:href="#bbburst-shape-10" width="40.10720710655868" opacity="0.2400185571515031" transform="matrix(1.0772617070040527,-0.6340403887945268,0.6340403887945268,1.0772617070040527,-28.54575049209879,-323.88456789629845)" fill="none" stroke="#ff5c58" filter="url(#bbburst-blur-3)"></use><use xlink:href="#bbburst-shape-10" width="14.101891671004935" opacity="0.7654401715118141" transform="matrix(0.9640215482096607,-0.2658241046019883,0.2658241046019883,0.9640215482096607,354.81032069418427,97.04775282963692)" fill="none" stroke="#00a19d" filter="url(#bbburst-blur-1)"></use><use xlink:href="#bbburst-shape-4" width="32.85822581228041" opacity="0.5538368688212114" transform="matrix(0.9520816125793038,0.30584408280755176,-0.30584408280755176,0.9520816125793038,443.7460441160345,204.82368221071363)" fill="#00a19d" filter="url(#bbburst-blur-2)"></use><use xlink:href="#bbburst-shape-4" width="13.259106864969048" opacity="0.9130124741681163" transform="matrix(0.9360695443062749,-0.3518150198929017,0.3518150198929017,0.9360695443062749,244.33688229728975,66.07303753714876)" fill="#ffa6d5"></use><use xlink:href="#bbburst-shape-14" width="30.458141881829235" opacity="0.07672676210604323" transform="matrix(1.4349562497560537,-1.001698837618394,1.001698837618394,1.4349562497560537,-382.9463683753951,-365.28397697069295)" fill="none" stroke="#ffbd9b" filter="url(#bbburst-blur-4)"></use><use xlink:href="#bbburst-shape-8" width="18.87080603986084" opacity="0.6444938027130038" transform="matrix(0.8458522666010801,0.5334172317106143,-0.5334172317106143,0.8458522666010801,450.80247050293843,15.433316985499744)" fill="none" stroke="#ffbd9b" filter="url(#bbburst-blur-1)"></use><use xlink:href="#bbburst-shape-4" width="17.652876044640745" opacity="0.7133565890235716" transform="matrix(0.7313051975313783,0.6820503706205222,-0.6820503706205222,0.7313051975313783,779.8244956615492,40.12761555476891)" fill="#ff5c58" filter="url(#bbburst-blur-1)"></use><use xlink:href="#bbburst-shape-8" width="41.15922508315641" opacity="0.21444930227426384" transform="matrix(1.2475389177098966,0.07840056631950981,-0.07840056631950981,1.2475389177098966,758.991894293243,-112.28730554654811)" fill="none" stroke="#00a19d" filter="url(#bbburst-blur-3)"></use><use xlink:href="#bbburst-shape-8" width="27.0471719502112" opacity="0.545136815105456" transform="matrix(0.9999275080497931,0.012040707841775454,-0.012040707841775454,0.9999275080497931,575.2680064732353,-89.8600642084819)" fill="none" stroke="#2c2891" filter="url(#bbburst-blur-2)"></use><use xlink:href="#bbburst-shape-10" width="23.616754619577684" opacity="0.1434817282080727" transform="matrix(0.894199827605787,0.8734452863859195,-0.8734452863859195,0.894199827605787,1103.855926045455,155.7269102673966)" fill="none" stroke="#2c2891" filter="url(#bbburst-blur-3)"></use><use xlink:href="#bbburst-shape-10" width="11.278040799590002" opacity="0.8912410584113791" transform="matrix(0.7522860034957686,0.6588366785056554,-0.6588366785056554,0.7522860034957686,705.0606230211622,112.70692615539235)" fill="none" stroke="#2c2891"></use><use xlink:href="#bbburst-shape-8" width="48.164267027426575" opacity="-0.0632895691700146" transform="matrix(1.67099983560666,0.5198649338073449,-0.5198649338073449,1.67099983560666,895.42827231608,67.70743357017352)" fill="none" stroke="#00a19d" filter="url(#bbburst-blur-4)"></use><use xlink:href="#bbburst-shape-4" width="19.925611503584125" opacity="0.7343100885762853" transform="matrix(0.9996122720012977,-0.0278443111677,0.0278443111677,0.9996122720012977,273.7392452538884,-56.427519626641356)" fill="#00a19d" filter="url(#bbburst-blur-1)"></use><use xlink:href="#bbburst-shape-10" width="19.47554443615919" opacity="0.7826867647977636" transform="matrix(0.9798537718399196,-0.19971626326136477,0.19971626326136477,0.9798537718399196,242.2774353948583,-59.98910674128979)" fill="none" stroke="#ffbd9b"></use><use xlink:href="#bbburst-shape-10" width="38.461962676539216" opacity="0.4080872122587781" transform="matrix(0.854150238663927,0.5200263164401938,-0.5200263164401938,0.854150238663927,696.1319343653772,293.3247007659663)" fill="none" stroke="#ffbd9b" filter="url(#bbburst-blur-2)"></use><use xlink:href="#bbburst-shape-14" width="47.46277772773331" opacity="0.06861739697122382" transform="matrix(1.6464772506873548,-0.592969360902407,0.592969360902407,1.6464772506873548,466.06782831966336,-2.5446834696732594)" fill="none" stroke="#00a19d" filter="url(#bbburst-blur-4)"></use><use xlink:href="#bbburst-shape-14" width="36.15386835735925" opacity="0.4341627564479327" transform="matrix(0.9966860283758721,0.0813447038247135,-0.0813447038247135,0.9966860283758721,281.2120365788079,-217.03997289080695)" fill="none" stroke="#2c2891" filter="url(#bbburst-blur-2)"></use><use xlink:href="#bbburst-shape-10" width="28.23132610596272" opacity="0.6592833347710455" transform="matrix(0.9955186537497577,0.09456537440453554,-0.09456537440453554,0.9955186537497577,575.7302330286085,-19.963339749287513)" fill="none" stroke="#2c2891" filter="url(#bbburst-blur-1)"></use><use xlink:href="#bbburst-shape-10" width="31.868769590393878" opacity="0.49292804753070474" transform="matrix(0.9092908604255722,0.4161611840940031,-0.4161611840940031,0.9092908604255722,753.7364211468642,136.234347480925)" fill="none" stroke="#ffa6d5" filter="url(#bbburst-blur-2)"></use><use xlink:href="#bbburst-shape-10" width="32.37415500456191" opacity="0.4252154726147148" transform="matrix(0.7112493813109376,0.7029397681059228,-0.7029397681059228,0.7112493813109376,856.6590608569012,-74.57863904824566)" fill="none" stroke="#00a19d" filter="url(#bbburst-blur-2)"></use><use xlink:href="#bbburst-shape-10" width="16.401970778769922" opacity="0.8229449941334886" transform="matrix(0.9596385955834568,-0.2812361389768584,0.2812361389768584,0.9596385955834568,296.9094657977172,96.23065526642995)" fill="none" stroke="#ff5c58"></use><use xlink:href="#bbburst-shape-8" width="36.03466719466763" opacity="0.36757289600375087" transform="matrix(0.7126706072521652,-0.7014988279098049,0.7014988279098049,0.7126706072521652,-175.60098233318053,90.45110411304654)" fill="none" stroke="#ffa6d5" filter="url(#bbburst-blur-2)"></use><use xlink:href="#bbburst-shape-4" width="19.65512524031305" opacity="0.6732452784333851" transform="matrix(0.7866763163387225,0.6173656722816213,-0.6173656722816213,0.7866763163387225,703.6677359200852,-52.879276049051384)" fill="#2c2891" filter="url(#bbburst-blur-1)"></use><use xlink:href="#bbburst-shape-14" width="27.08608191677407" opacity="0.5377419173578251" transform="matrix(0.8290501638565728,0.5591742356451964,-0.5591742356451964,0.8290501638565728,404.7032138525336,49.706940489515944)" fill="none" stroke="#2c2891" filter="url(#bbburst-blur-2)"></use><use xlink:href="#bbburst-shape-1" width="24.472932258289827" opacity="0.16884750298398787" transform="matrix(1.2481285881103192,-0.06837417306074729,0.06837417306074729,1.2481285881103192,271.68690932510884,-462.44498670669975)" fill="#ffbd9b" filter="url(#bbburst-blur-3)"></use><use xlink:href="#bbburst-shape-8" width="42.38532525093786" opacity="0.09143332353740641" transform="matrix(1.5729032794581514,-0.7671214202913332,0.7671214202913332,1.5729032794581514,-301.8961263274107,-22.310934847300814)" fill="none" stroke="#2c2891" filter="url(#bbburst-blur-4)"></use><use xlink:href="#bbburst-shape-8" width="32.378786442341905" opacity="0.05449534388450583" transform="matrix(1.7085662807448445,0.378551534538865,-0.378551534538865,1.7085662807448445,284.4848621510081,62.26621283595182)" fill="none" stroke="#2c2891" filter="url(#bbburst-blur-4)"></use><use xlink:href="#bbburst-shape-10" width="18.194667898107227" opacity="0.8158955526690466" transform="matrix(0.9192234304669591,0.39373631389618563,-0.39373631389618563,0.9192234304669591,468.9485455172848,49.56697188820624)" fill="none" stroke="#ff5c58"></use><use xlink:href="#bbburst-shape-14" width="24.840571910569967" opacity="0.5808104264326479" transform="matrix(0.9513265952700385,0.30818453746402724,-0.30818453746402724,0.9513265952700385,696.8935960281093,50.21486496260695)" fill="none" stroke="#2c2891" filter="url(#bbburst-blur-1)"></use><use xlink:href="#bbburst-shape-10" width="30.701859350318408" opacity="0.5739399458007641" transform="matrix(0.8448845057574519,0.5349487563598837,-0.5349487563598837,0.8448845057574519,653.624474989487,238.20054492290222)" fill="none" stroke="#00a19d" filter="url(#bbburst-blur-1)"></use></svg>