<svg xmlns="http://www.w3.org/2000/svg" version="1.1" xmlns:xlink="http://www.w3.org/1999/xlink" xmlns:svgjs="http://svgjs.com/svgjs" width="1440" height="560" preserveAspectRatio="none" viewBox="0 0 1440 560">
    <g mask="url(&quot;#SvgjsMask1003&quot;)" fill="none">
        <rect width="1440" height="560" x="0" y="0" fill="url(#SvgjsLinearGradient1004)"></rect>
        <path d="M720 694.97C831.96 692.35 941.82 660.12 1023.28 583.28 1107.12 504.2 1164.24 395.19 1159.89 280 1155.64 168.17 1081.15 77.05 1001.15-1.15 922.33-78.19 829.92-141.7 720-150 601.51-158.94 479.59-128.41 392.89-47.11 303.77 36.46 259.64 157.84 261.41 280 263.14 400.46 312.88 516.98 402.2 597.8 487.58 675.08 604.88 697.66 720 694.97" fill="#1c538e"></path>
        <path d="M720 548.51C792.45 546.82 863.53 525.96 916.24 476.24 970.49 425.07 1007.45 354.54 1004.64 280 1001.89 207.64 953.68 148.68 901.92 98.08 850.92 48.23 791.13 7.13 720 1.77 643.33-4.02 564.44 15.74 508.34 68.34 450.68 122.41 422.12 200.95 423.26 280 424.39 357.95 456.57 433.34 514.37 485.63 569.61 535.64 645.51 550.25 720 548.51" fill="#2774c6"></path>
        <path d="M720 402.05C752.93 401.28 785.24 391.8 809.2 369.2 833.86 345.94 850.66 313.88 849.38 280 848.13 247.11 826.22 220.31 802.69 197.31 779.51 174.65 752.33 155.97 720 153.53 685.15 150.9 649.29 159.88 623.79 183.79 597.58 208.37 584.6 244.07 585.12 280 585.63 315.43 600.26 349.7 626.53 373.47 651.64 396.2 686.14 402.84 720 402.05" fill="#488fdb"></path>
    </g>
    <defs>
        <mask id="SvgjsMask1003">
            <rect width="1440" height="560" fill="#ffffff"></rect>
        </mask>
        <linearGradient x1="15.28%" y1="-39.29%" x2="84.72%" y2="139.29%" gradientUnits="userSpaceOnUse" id="SvgjsLinearGradient1004">
            <stop stop-color="#0e2a47" offset="0"></stop>
            <stop stop-color="#00459e" offset="1"></stop>
        </linearGradient>
    </defs>
</svg>