<!--?xml version="1.0" standalone="no"?-->              <svg id="sw-js-blob-svg" viewBox="0 0 100 100" xmlns="http://www.w3.org/2000/svg" version="1.1">                    <defs>                         <linearGradient id="sw-gradient" x1="0" x2="1" y1="1" y2="0">                            <stop id="stop1" stop-color="rgba(37, 99, 235, 1)" offset="0%"></stop>                            <stop id="stop2" stop-color="rgba(37, 99, 235, 1)" offset="100%"></stop>                        </linearGradient>                    </defs>                <path fill="url(#sw-gradient)" d="M28.5,-34.4C35.7,-28,39.4,-17.8,40.9,-7.5C42.4,2.8,41.7,13.3,36.7,20.5C31.7,27.6,22.3,31.5,13.8,32.2C5.2,32.9,-2.5,30.4,-10.3,27.7C-18.1,25.1,-26.1,22.4,-30.8,16.6C-35.6,10.8,-37.2,2,-34.7,-5C-32.1,-12,-25.5,-17.2,-19,-23.8C-12.5,-30.3,-6.3,-38.2,2.2,-40.8C10.7,-43.4,21.3,-40.8,28.5,-34.4Z" width="120%" height="120%" transform="translate(50 50)" stroke-width="0" style="transition: all 0.3s ease 0s;"></path>              </svg>